<?xml version="1.0"?>
<svg version="1.1" xmlns="http://www.w3.org/2000/svg" width="172" height="48" style=""><path fill="#ffffff" d="M21.358,43.55q-2.992,2.312-4.386,2.312q-0.748,0-1.105-0.731t-0.357-1.581q0-1.632,1.377-4.896t2.635-3.264q0.646,0,1.105,2.55t0.935,3.706q2.312-2.448,6.698-8.16q5.508-7.242,7.31-7.922q0.612-0.238,1.258-0.238t1.071,0.272t0.425,0.68q0,0.578-0.986,0.68q-1.19,0.646-3.672,3.128q-2.482,2.414-3.978,4.522q-3.638,5.066-7.48,8.262q1.904,2.822,5.984,2.822q0.442,0,1.326-0.068q9.452-0.884,13.396-8.194q1.598-2.924,1.598-5.78t-2.074-5.134q-1.666-1.87-3.621-2.312t-3.995-0.442q-5.236,0-9.656,2.414q-4.658,2.55-4.658,5.712q0,0.85,0.459,1.394t0.629,0.612l-0.204,0q-0.884-0.17-1.564-0.884q-0.748-0.884-0.748-1.87q0-3.4,4.267-5.848t10.013-2.448q2.652,0,5.44,0.612t5.066,2.924q2.618,2.72,2.618,6.154q0,2.55-1.496,5.27q-2.584,4.692-7.718,6.868q-4.114,1.734-8.874,1.734t-7.038-2.856z M16.734,43.414q0,1.054,0.408,1.836q1.462-0.646,3.536-2.686q-0.986-1.632-1.241-2.567t-0.357-2.465q-2.346,3.366-2.346,5.882z M21.596,33.894q0.034,0,0.068-0.034q0,0.068-0.017,0.068t-0.051-0.034z M54.07178,43.89q-0.986,0.578-2.431,0.578t-2.21-0.952t-1.309-3.026q-0.612,0.612-0.85,0.612q-0.17,0-0.17-0.238t0.17-0.408q1.122-1.394,3.808-4.012l4.284-4.012q1.836-1.734,2.176-1.734q1.088,0,1.088,0.816q0,0.408-0.323,0.799t-0.476,0.612t-0.323,0.425q-0.612,1.054-1.241,4.352t-0.969,4.59q2.822-0.034,5.814-3.672q0.34-0.34,0.51-0.34t0.17,0.221t-0.306,0.595q-1.972,2.312-3.672,3.23q-1.02,0.51-2.652,0.85z M49.48178,40.116q0,1.156,0.765,1.887t1.717,0.731t1.462-0.374q0.68-0.374,1.343-3.128t0.799-4.862l0.136-1.156q-1.87,1.394-3.995,3.604t-2.193,2.924q-0.034,0.204-0.034,0.374z M70.70934,42.122q0-3.672,2.176-7.276q-2.516-1.598-2.516-4.726q0-3.774,3.332-6.698q3.74-3.298,9.656-3.298q2.72,0,5.848,0.782q0.714,0.17,6.086,2.635t7.718,2.465q1.564,0,2.346-0.884q0.408-0.442,0.408-0.952t-0.442-0.918q-0.238-0.34-0.238-0.442t0.187-0.102t0.646,0.595t0.459,1.394t-1.071,1.53t-2.703,0.731q-2.55,0-7.922-2.465t-6.749-2.737t-3.145-0.272q-7.038,0-11.084,4.556q-0.476,0.51-1.122,2.057t-0.646,2.975q0,1.972,1.394,3.06q1.768-2.584,4.182-4.114t4.896-1.53q3.06,0,3.06,2.38q0,2.856-3.349,6.205t-6.205,3.349q-1.836,0-1.836-1.564q0-0.544,0.289-0.952t0.697-0.306l-0.068,0.782q0,0.51,1.564,0.51q2.312,0,4.879-2.38t3.111-4.658q0.136-0.51,0.136-0.918q0-1.53-1.955-1.53t-4.046,1.496t-3.927,3.944q0.136,0.068,1.054,0.272l2.04,0.068q1.496,0.068,1.496,0.34q0,0.476-1.428,0.476l-0.204,0q-2.074,0-3.4-0.51q-2.618,4.012-2.618,7.378q0,4.352,3.366,4.352q3.808,0,7.922-5.304l6.664-9.928q3.74-5.44,6.494-5.576l1.292,0.306q0.612,0.34,0.612,1.02t-0.34,0.68l-1.088-0.17q-2.346,0-6.018,5.066l-6.766,9.452q-4.352,5.066-8.33,5.066q-2.72,0-3.757-1.462t-1.037-4.25z M102.60712,37.192q0,1.19-2.278,3.978q-2.686,3.298-4.59,3.298l-0.544,0q-0.884,0-1.394-0.918q-0.408-0.646-0.408-1.428q0-2.04,2.975-5.729t4.811-3.689q1.734,0,1.734,1.836q0,0.476-0.17,1.224q0.034,0.102,0.646,0.102t1.87-0.646q-0.034,0.578-2.686,1.666q0.034,0.136,0.034,0.306z M100.39712,35.424q-1.156,0-3.281,2.72t-2.125,4.012t0.816,1.292q1.462,0,3.706-2.652t2.244-3.808q-0.544-0.306-1.36-1.564z M121.0409,43.992q-2.312,0-2.312-2.142q0-1.224,1.088-3.349t2.278-3.587q-2.108,1.02-4.862,3.689t-3.842,5.593q-0.17,0.272-0.578,0.272q-0.816,0-0.816-0.918q0.34-1.87,1.53-4.284q0.374-0.782,2.21-4.556q-2.652,1.734-4.505,3.723t-3.434,3.995t-1.785,2.006q-0.442,0-0.765-0.408t-0.323-0.816q0-0.612,1.768-4.488l-2.04,2.142q-0.748,0.748-0.935,0.748t-0.187-0.221t0.272-0.493q1.258-1.258,2.244-2.516t3.264-4.488q0.374-0.51,1.054-0.51t0.68,0.646q0,0.238-1.802,3.315t-2.006,3.859q1.394-1.53,4.182-4.114q4.182-3.876,5.508-3.876q0.408,0,0.748,0.238t0.34,0.527t-1.326,2.567q-1.292,2.346-1.428,2.788q3.774-3.162,3.774-3.196q3.196-2.482,4.59-2.482q0.408,0,0.765,0.255t0.357,0.595q0,0.068-2.21,2.873t-2.482,4.607q-0.068,0.612,0.238,0.918t1.105,0.306t2.346-1.105t3.145-2.975q0.612-0.68,0.833-0.68t0.221,0.17q0,0.238-0.306,0.544q-1.666,2.006-3.587,3.417t-3.009,1.411z M139.03268,34.234l0.476-0.102q0.374,0,0.714,0.306t0.34,0.476t-2.108,3.281t-2.108,4.335q0,0.102,0.034,0.204q0.17,0.782,0.748,0.782q1.768,0,6.46-5.848q0.102-0.136,0.238-0.136t0.136,0.255t-0.306,0.663q-4.352,5.814-6.63,5.814q-0.306,0-0.578-0.102q-1.496-0.578-1.496-2.244q0-0.578,0.136-1.156l-2.108,2.04q-2.006,1.768-2.907,1.768t-1.717-0.578q-0.918-0.68-0.918-1.802q0-2.482,3.468-5.933t6.358-3.451q1.122,0,1.496,0.782q0.102,0.272,0.17,0.459t0.102,0.187z M128.86668,42.598q0,1.224,0.85,1.224q1.972,0,5.372-4.318l3.604-4.964q-0.272-0.476-0.884-0.476q-2.074,0-5.508,3.213t-3.434,5.321z M150.19046,44.57q-2.55,0-2.55-2.822q0-1.428,0.748-3.128t1.632-2.856q-0.17,0.034-0.442,0.034q-0.816,0-1.36-1.156l-2.516,3.264q-2.108,2.618-2.448,2.618q-0.17,0-0.17-0.136q0-0.34,0.578-0.986q2.958-3.434,4.182-5.814q0.782-2.958,1.972-2.958q0.782,0,0.782,0.68t-0.85,1.734l-0.816,1.088q0,0.714,1.054,0.714q0.612,0,1.36-0.442l0.884-0.544q0.068-0.034,0.34-0.034t0.578,0.34t0.204,0.612l-2.346,2.958q-2.176,2.788-2.176,4.403t1.496,1.615q1.564,0,3.842-1.666q1.36-0.986,2.482-2.21q1.054-1.224,1.156-1.224q0.238,0,0.238,0.255t-0.306,0.595l-1.088,1.224q-0.918,0.952-2.04,1.836q-2.686,2.006-4.42,2.006z"/><path fill="#0095ff" d=""/></svg>
